<?xml version="1.0" encoding="utf-8"?>
<!-- Generator: Adobe Illustrator 27.8.0, SVG Export Plug-In . SVG Version: 6.00 Build 0)  -->
<svg version="1.1" id="Layer_1" xmlns="http://www.w3.org/2000/svg" xmlns:xlink="http://www.w3.org/1999/xlink" x="0px" y="0px"
	 viewBox="0 0 1038 1044" style="enable-background:new 0 0 1038 1044;" xml:space="preserve">
<style type="text/css">
	.st0{fill:url(#SVGID_1_);}
	.st1{opacity:0.3;fill:none;stroke:#0DD09E;stroke-width:4;enable-background:new    ;}
	.st2{opacity:0.2;fill:none;stroke:#0DD09E;stroke-width:2;enable-background:new    ;}
	.st3{fill:none;stroke:#0DD09E;stroke-width:4.9312;}
	.st4{fill:none;stroke:#0DD09E;stroke-width:4;}
</style>
<radialGradient id="SVGID_1_" cx="464.1" cy="573.8204" r="1" gradientTransform="matrix(3.177187e-14 518.874 518.874 -3.177187e-14 -297221.4688 -240290.5)" gradientUnits="userSpaceOnUse">
	<stop  offset="0.8621" style="stop-color:#006652"/>
	<stop  offset="1" style="stop-color:#006652;stop-opacity:0"/>
</radialGradient>
<circle class="st0" cx="519" cy="518.9" r="518.9"/>
<path class="st1" d="M634.6,134.3L634.6,134.3l237.8,191c30.8,24.8,46.1,63.9,40.1,103l-46.4,301.5c-6,39-32.4,71.9-69.3,86.2
	L512.7,926.5l0,0c-36.8,14.3-78.4,7.9-109.3-16.8l0,0L165.5,718.8c-30.8-24.8-46.1-63.9-40.1-103l46.4-301.5
	c6-39,32.4-71.9,69.3-86.2l284.3-110.6v0C562.2,103.2,603.8,109.6,634.6,134.3z"/>
<path class="st2" d="M666.6,112.6L666.6,112.6l243.6,218.7c31.9,28.6,46.1,71.9,37.3,113.9l-67.6,320.3
	c-8.8,41.8-39.4,75.8-80.1,89.1L488.6,956.2h0c-40.7,13.3-85.3,3.9-117.2-24.7l0,0L127.8,712.8C96,684.2,81.7,640.9,90.6,599
	l67.6-320.3c8.8-41.8,39.4-75.8,80.1-89.1L549.4,87.8h0C590.1,74.5,634.7,83.9,666.6,112.6z"/>
<path class="st3" d="M788.1,727L566.9,855.7c-28.9,16.8-64.6,16.9-93.6,0.3L251.3,728.8c-29-16.6-46.9-47.4-47.1-80.9l-0.9-256
	c-0.1-33.4,17.6-64.4,46.5-81.2l221.2-128.7c28.9-16.8,64.6-16.9,93.6-0.3L786.7,309c29,16.6,46.9,47.4,47.1,80.9l0.9,256
	C834.8,679.3,817,710.2,788.1,727z"/>
<path class="st4" d="M798,777.6L543.2,897.8c-33.3,15.7-72.4,12.4-102.6-8.5L209.1,728.7c-30.2-21-47-56.5-43.9-93.2l23.3-280.8
	c3-36.7,25.4-68.9,58.7-84.6L502,149.9c33.3-15.7,72.4-12.4,102.6,8.5L836.1,319c30.2,21,47,56.5,43.9,93.2L856.7,693
	C853.7,729.6,831.3,761.9,798,777.6z"/>
</svg>
